<svg width="226" height="26" viewBox="0 0 226 26" fill="none" xmlns="http://www.w3.org/2000/svg">
<g clip-path="url(#clip0_754_22936)">
<path d="M13.7568 13.0886C13.7568 9.15158 16.9992 5.96457 21.0546 5.96457C25.11 5.96457 28.3819 9.14961 28.3819 13.0886C28.3819 16.998 25.1376 20.2421 21.0546 20.2421C16.9716 20.2421 13.7568 16.998 13.7568 13.0886ZM24.8777 13.0886C24.8777 11.1201 23.1689 9.38189 21.0546 9.38189C18.9698 9.38189 17.261 11.1201 17.261 13.0886C17.2805 14.0836 17.6881 15.0316 18.3968 15.7304C19.1056 16.4291 20.0593 16.8233 21.0546 16.8287C23.1689 16.8248 24.8777 15.0866 24.8777 13.0886Z" fill="#0056D2"/>
<path d="M86.0927 13.2047C86.0927 8.88977 89.5968 5.96457 92.786 5.96457C94.9515 5.96457 96.2036 6.63189 97.0442 7.90551L97.3769 6.22638H100.635V19.9803H97.369L96.9497 18.563C95.9929 19.6043 94.8059 20.2421 92.7782 20.2421C89.6539 20.2421 86.0927 17.4902 86.0927 13.2047ZM97.2135 13.1752C97.1873 12.1801 96.7727 11.2348 96.0583 10.5416C95.3437 9.84837 94.3863 9.4624 93.3908 9.46626C92.3953 9.47012 91.4409 9.86351 90.7318 10.5622C90.0227 11.2609 89.6153 12.2095 89.5968 13.2047C89.5968 15.1161 91.3056 16.8248 93.3904 16.8248C95.5047 16.8248 97.2135 15.1161 97.2135 13.1752Z" fill="#0056D2"/>
<path d="M82.5747 7.8189V6.22442H79.0115V19.9803H82.5747V12.5669C82.5747 10.3366 83.6752 9.17914 85.5867 9.17914C85.7084 9.18022 85.8299 9.18745 85.9509 9.20079L86.6104 5.87796C84.754 5.88977 83.4075 6.5256 82.5747 7.8189Z" fill="#0056D2"/>
<path d="M47.5624 7.81891V6.22639H44.0011L44.0306 19.9823H47.5939L47.5624 12.5689C47.5624 10.3386 48.6569 9.17717 50.5665 9.17324C50.6888 9.17365 50.811 9.18022 50.9327 9.19292L51.5843 5.87009C49.7279 5.88583 48.3872 6.52363 47.5624 7.81891Z" fill="#0056D2"/>
<path d="M29.5198 14.6536V6.22641H33.081V14.2284C33.081 16 34.0654 17.0374 35.7741 17.0374C37.6857 17.0374 38.7862 15.878 38.7862 13.6496V6.22641H42.3494V19.9803H38.7862V18.3878C37.9475 19.691 36.5852 20.3288 34.7032 20.3288C31.5179 20.3307 29.5198 18.0118 29.5198 14.6536Z" fill="#0056D2"/>
<path d="M0 13.0886C0 9.12205 3.24432 5.93701 7.29775 5.93701C8.51674 5.92837 9.71877 6.22282 10.7957 6.7939C11.8727 7.36499 12.7908 8.19479 13.4675 9.20867L10.4259 10.9803C10.0659 10.4352 9.57037 9.99302 8.98799 9.69697C8.40563 9.40093 7.75635 9.26123 7.10374 9.2915C6.45114 9.3218 5.81761 9.52105 5.26517 9.86977C4.71273 10.2185 4.26034 10.7047 3.9523 11.2808C3.64429 11.8569 3.49117 12.5031 3.50798 13.1561C3.52477 13.8092 3.71093 14.4466 4.04818 15.0061C4.38542 15.5656 4.86223 16.0279 5.43185 16.3478C6.0015 16.6676 6.64446 16.834 7.29775 16.8307C7.94045 16.8353 8.57357 16.6748 9.13646 16.3646C9.69936 16.0544 10.1732 15.6048 10.5125 15.0591L13.5246 16.8563C12.8568 17.9005 11.9357 18.7587 10.8469 19.3511C9.75818 19.9434 8.53723 20.2506 7.29775 20.2441C3.24432 20.2421 0 16.998 0 13.0886Z" fill="#0056D2"/>
<path d="M64.0084 13.1043C64.0084 9.25395 66.7645 5.95671 71.1467 5.96458C75.2021 5.96458 78.0626 9.22049 78.0547 13.0512C78.0557 13.4296 78.0261 13.8075 77.9661 14.1811L67.4831 14.1614C67.8768 15.813 69.243 17.004 71.3003 17.0059C72.5464 17.0059 73.8792 16.5473 74.6922 15.5079L77.1215 17.4528C75.8715 19.2244 73.6685 20.2539 71.3239 20.25C67.1819 20.2342 64.0025 17.1299 64.0084 13.1043ZM74.4678 11.6693C74.271 10.2776 72.8201 9.20474 71.1211 9.2008C70.3484 9.18506 69.5909 9.41584 68.9584 9.85972C68.3257 10.3036 67.851 10.9374 67.6032 11.6693H74.4678Z" fill="#0056D2"/>
<path d="M51.4189 16.9843L54.5885 15.3268C55.1121 16.4607 56.1634 17.1299 57.6399 17.1299C59.0061 17.1299 59.5297 16.6929 59.5297 16.0827C59.5297 13.874 52.0292 15.2107 52.0292 10.1536C52.0292 7.3642 54.4723 5.87994 57.4942 5.87994C59.7916 5.87994 61.8252 6.89766 62.9316 8.78742L59.7916 10.4449C59.327 9.5138 58.4549 8.99018 57.3505 8.99018C56.2461 8.99018 55.75 9.36813 55.75 10.0079C55.75 12.1595 63.2505 10.7953 63.2505 15.939C63.2505 18.6122 61.0712 20.2402 57.5532 20.2402C54.5589 20.2382 52.4663 19.25 51.4189 16.9843Z" fill="#0056D2"/>
<path d="M109.266 7.18701L111.022 7.07677H115.057V8.08661H109.266V7.18701ZM110.994 4.27953C110.994 1.78543 112.114 0.5 114.104 0.5C114.738 0.51617 115.361 0.660128 115.937 0.923228L115.624 1.86614C115.159 1.63469 114.646 1.51282 114.126 1.50984C112.77 1.50984 112.157 2.53937 112.157 4.35827V19.6476H111L110.994 4.27953Z" fill="#0056D2"/>
<path d="M116.388 13.3859C116.388 9.18113 119.012 6.76184 122.032 6.76184C125.052 6.76184 127.686 9.18113 127.686 13.3859C127.686 17.5433 125.062 19.9626 122.04 19.9626C119.018 19.9626 116.388 17.5433 116.388 13.3859ZM126.464 13.3859C126.464 10.0768 124.572 7.78347 122.032 7.78347C119.493 7.78347 117.603 10.0768 117.603 13.3859C117.603 16.6949 119.493 18.941 122.032 18.941C124.572 18.941 126.464 16.6949 126.464 13.3859Z" fill="#0056D2"/>
<path d="M131.454 7.07676H132.438L132.564 9.42125H132.608C133.458 7.87794 134.689 6.7618 136.185 6.7618C136.615 6.74536 137.043 6.83528 137.431 7.02361L137.169 8.07085C136.809 7.92382 136.422 7.85278 136.033 7.86219C134.901 7.86219 133.56 8.72046 132.602 11.0964V19.6476H131.446L131.454 7.07676Z" fill="#0056D2"/>
<path d="M143.931 13.3859C143.931 9.18113 146.618 6.76184 149.676 6.76184C151.388 6.76184 152.503 7.52168 153.357 8.31105L152.676 9.11812C151.865 8.36418 150.928 7.78347 149.701 7.78347C147.13 7.78347 145.146 10.0768 145.146 13.3859C145.146 16.6949 146.953 18.941 149.686 18.941C151.032 18.941 152.19 18.2914 153.054 17.4902L153.645 18.3032C152.572 19.2658 151.225 19.9626 149.629 19.9626C146.388 19.9626 143.931 17.5433 143.931 13.3859Z" fill="#0056D2"/>
<path d="M155.584 16.5197C155.584 13.7264 158.102 12.3957 163.694 11.7776C163.73 9.84649 163.203 7.77757 160.73 7.77757C159.033 7.77757 157.568 8.61615 156.724 9.25395L156.19 8.39568C157.08 7.76773 158.824 6.76184 160.866 6.76184C163.846 6.76184 164.852 8.92718 164.852 11.6162V19.6477H163.868L163.742 18.0138H163.685C162.401 19.0512 160.874 19.9626 159.224 19.9626C157.238 19.9626 155.584 18.878 155.584 16.5197ZM163.694 16.9351V12.6536C158.531 13.2441 156.767 14.4508 156.767 16.4547C156.767 18.2599 157.986 18.9528 159.433 18.9528C160.88 18.9528 162.137 18.2599 163.694 16.9351Z" fill="#0056D2"/>
<path d="M169.339 7.07678H170.323L170.449 9.02759H170.506C171.648 7.74609 173.077 6.76184 174.481 6.76184C176.497 6.76184 177.505 7.77759 177.952 9.3209C179.379 7.74609 180.769 6.76184 182.22 6.76184C184.724 6.76184 185.98 8.33664 185.98 11.5847V19.6555H184.822V11.7362C184.822 9.07088 183.932 7.79922 182.005 7.79922C180.824 7.79922 179.627 8.58662 178.239 10.1614V19.6437H177.083V11.7362C177.083 9.07088 176.194 7.79922 174.266 7.79922C173.128 7.79922 171.888 8.58662 170.5 10.1614V19.6437H169.343L169.339 7.07678Z" fill="#0056D2"/>
<path d="M190.6 7.07679H191.584L191.71 8.65159H191.768C192.996 7.66734 194.49 6.75592 196.036 6.75592C199.408 6.75592 201.067 9.27954 201.067 13.1713C201.067 17.437 198.492 19.9567 195.528 19.9567C194.335 19.9567 193.057 19.3898 191.748 18.4114L191.764 20.7303V25.3347H190.606L190.6 7.07679ZM199.853 13.1791C199.853 10.0906 198.754 7.78545 195.852 7.78545C194.606 7.78545 193.281 8.5197 191.764 9.86025V17.3189C193.183 18.5 194.52 18.9351 195.465 18.9351C198.014 18.9351 199.847 16.5906 199.847 13.1811L199.853 13.1791Z" fill="#0056D2"/>
<path d="M204.644 15.1398V7.06891H205.802V14.9803C205.802 17.6457 206.644 18.9173 208.666 18.9173C210.162 18.9173 211.247 18.1299 212.718 16.3583V7.07678H213.875V19.6476H212.891L212.765 17.5433H212.708C211.471 18.9882 210.172 19.9626 208.44 19.9626C205.841 19.9626 204.644 18.3858 204.644 15.1398Z" fill="#0056D2"/>
<path d="M217.127 18.2244L217.799 17.3799C218.862 18.2717 220.005 18.9725 221.793 18.9725C223.773 18.9725 224.799 17.815 224.799 16.4902C224.799 14.9154 223.171 14.2225 221.72 13.6988C219.824 13.0276 217.714 12.254 217.714 10.1083C217.714 8.29531 219.149 6.76184 221.767 6.76184C223.077 6.78542 224.338 7.24391 225.358 8.06499L224.736 8.89765C223.888 8.26379 222.996 7.752 221.736 7.752C219.767 7.752 218.887 8.87995 218.887 10.0394C218.887 11.4744 220.37 12.0197 221.866 12.5847C223.815 13.3248 225.972 13.9626 225.972 16.4173C225.972 18.313 224.459 19.9606 221.736 19.9606C220.043 19.942 218.411 19.3272 217.127 18.2244Z" fill="#0056D2"/>
</g>
<defs>
<clipPath id="clip0_754_22936">
<rect width="226" height="25" fill="white" transform="translate(0 0.5)"/>
</clipPath>
</defs>
</svg>
