<svg width="56" height="53" viewBox="0 0 56 53" fill="none" xmlns="http://www.w3.org/2000/svg">
<g clip-path="url(#clip0_2156_4625)">
<path d="M18.1497 41.7581C18.4421 41.9664 18.7907 42.0815 19.1497 42.0881C19.4354 42.091 19.7173 42.0222 19.9697 41.8881L27.6697 37.8881L35.3697 41.8881C35.6654 42.0622 36.0054 42.1466 36.3482 42.131C36.691 42.1154 37.0219 42.0004 37.3006 41.8002C37.5793 41.5999 37.7937 41.3229 37.9178 41.003C38.0419 40.683 38.0704 40.3339 37.9997 39.9981L36.4997 31.4581L42.7297 25.3781C42.9647 25.1472 43.1303 24.8549 43.2074 24.5346C43.2845 24.2142 43.2702 23.8786 43.166 23.566C43.0618 23.2534 42.8719 22.9763 42.618 22.7663C42.3641 22.5563 42.0563 22.4218 41.7297 22.3781L33.1197 21.1181L29.2697 13.3181C29.123 13.0231 28.897 12.7749 28.617 12.6014C28.337 12.4279 28.0141 12.3359 27.6847 12.3359C27.3553 12.3359 27.0324 12.4279 26.7524 12.6014C26.4723 12.7749 26.2463 13.0231 26.0997 13.3181L22.2497 21.1181L13.6497 22.3781C13.3231 22.4218 13.0153 22.5563 12.7614 22.7663C12.5074 22.9763 12.3176 23.2534 12.2134 23.566C12.1092 23.8786 12.0948 24.2142 12.1719 24.5346C12.2491 24.8549 12.4146 25.1472 12.6497 25.3781L18.8797 31.4581L17.4497 39.9981C17.3936 40.3231 17.4295 40.6572 17.5531 40.9629C17.6768 41.2685 17.8834 41.5336 18.1497 41.7281V41.7581ZM17.7097 25.3181L23.7097 24.4481C23.9969 24.4049 24.2689 24.2909 24.5011 24.1163C24.7333 23.9417 24.9184 23.7121 25.0397 23.4481L27.7197 18.0181L30.3897 23.4481C30.5124 23.711 30.6979 23.9398 30.9298 24.1141C31.1618 24.2885 31.433 24.4032 31.7197 24.4481L37.7197 25.3181L33.3897 29.5481C33.1829 29.7461 33.0281 29.9921 32.9392 30.2642C32.8502 30.5363 32.8298 30.8262 32.8797 31.1081L33.8797 37.1081L28.5297 34.2981C28.2781 34.1609 27.9962 34.0887 27.7097 34.0881C27.4228 34.0865 27.1404 34.1588 26.8897 34.2981L21.5297 37.0981L22.5297 31.0981C22.5791 30.817 22.5593 30.5282 22.4722 30.2564C22.3851 29.9846 22.2332 29.7381 22.0297 29.5381L17.7097 25.3181Z" fill="white"/>
<path d="M54.6907 19.1904L28.7407 0.340398C28.4399 0.121704 28.0776 0.00390625 27.7057 0.00390625C27.3338 0.00390625 26.9715 0.121704 26.6707 0.340398L0.730713 19.1904C0.422035 19.4097 0.192795 19.7231 0.0773984 20.0837C-0.0379981 20.4444 -0.0333262 20.8327 0.0907128 21.1904L10.3907 52.9004H14.1007L3.84071 21.2904L27.7107 4.0004L51.5807 21.2904L42.4607 49.3504H17.0007L18.1507 52.8704H43.7507C44.122 52.8691 44.4835 52.7517 44.7847 52.5348C45.086 52.3178 45.3118 52.0121 45.4307 51.6604L55.3407 21.1604C55.4599 20.8022 55.4621 20.4155 55.3471 20.056C55.232 19.6965 55.0057 19.3828 54.7007 19.1604" fill="white"/>
</g>
<defs>
<clipPath id="clip0_2156_4625">
<rect width="55.41" height="52.87" fill="white"/>
</clipPath>
</defs>
</svg>
