<svg width="63" height="47" viewBox="0 0 63 47" fill="none" xmlns="http://www.w3.org/2000/svg">
<g clip-path="url(#clip0_2156_4628)">
<path d="M55.52 1.76C55.52 1.29322 55.3346 0.845556 55.0045 0.515492C54.6744 0.185428 54.2268 0 53.76 0L43.21 0V3.53H52V43.24H46.73V7.08H43.21V43.24H37.45V8.84C37.45 8.60803 37.4042 8.37835 37.3151 8.16416C37.226 7.94997 37.0955 7.75551 36.931 7.59194C36.7665 7.42838 36.5713 7.29895 36.3566 7.21109C36.1419 7.12323 35.912 7.07868 35.68 7.08H25.13V10.61H33.92V43.24H28.66V14.16H25.13V43.24H19.37V15.92C19.37 15.6889 19.3245 15.46 19.236 15.2465C19.1476 15.0329 19.0179 14.8389 18.8545 14.6755C18.6911 14.5121 18.4971 14.3824 18.2835 14.294C18.07 14.2055 17.8411 14.16 17.61 14.16H7.06V17.69H15.84V43.24H10.58V21.24H7.06V43.24H0V46.76H62.58V43.24H55.52V1.76Z" fill="white"/>
</g>
<defs>
<clipPath id="clip0_2156_4628">
<rect width="62.58" height="46.76" fill="white"/>
</clipPath>
</defs>
</svg>
