<svg width="52" height="48" viewBox="0 0 52 48" fill="none" xmlns="http://www.w3.org/2000/svg">
<g clip-path="url(#clip0_2156_4619)">
<path d="M3.53055 3.53H48.4206V35.53H32.2906V30.71C34.444 29.5369 36.2287 27.7881 37.4452 25.6588C38.6617 23.5296 39.2621 21.104 39.1791 18.6531C39.0961 16.2023 38.333 13.8228 36.9752 11.7808C35.6175 9.73877 33.7184 8.11464 31.4905 7.09C31.2221 6.96561 30.9267 6.91088 30.6315 6.93089C30.3363 6.9509 30.051 7.04499 29.8018 7.20447C29.5526 7.36394 29.3476 7.58366 29.2058 7.84331C29.064 8.10295 28.99 8.39416 28.9905 8.69V17.17L25.9905 19.64L22.9905 17.17V8.69C22.991 8.39416 22.917 8.10295 22.7752 7.84331C22.6334 7.58366 22.4284 7.36394 22.1792 7.20447C21.93 7.04499 21.6447 6.9509 21.3495 6.93089C21.0543 6.91088 20.7589 6.96561 20.4905 7.09C18.2626 8.11464 16.3636 9.73877 15.0058 11.7808C13.648 13.8228 12.8849 16.2023 12.8019 18.6531C12.7189 21.104 13.3193 23.5296 14.5358 25.6588C15.7523 27.7881 17.537 29.5369 19.6905 30.71V35.53H7.1105V39.06H24.2405V44.37H15.7405V47.9H36.1905V44.37H27.7405V39.06H50.1905C50.4224 39.06 50.6522 39.0142 50.8664 38.9251C51.0805 38.836 51.2749 38.7055 51.4385 38.541C51.6021 38.3765 51.7315 38.1813 51.8194 37.9666C51.9072 37.7519 51.9518 37.522 51.9505 37.29V1.76999C51.9518 1.53802 51.9072 1.30809 51.8194 1.0934C51.7315 0.87871 51.6021 0.683504 51.4385 0.519012C51.2749 0.354521 51.0805 0.223991 50.8664 0.134918C50.6522 0.0458453 50.4224 -3.74416e-06 50.1905 2.29335e-10H1.74051C1.50854 -3.74416e-06 1.27891 0.0458453 1.06473 0.134918C0.850538 0.223991 0.656023 0.354521 0.49246 0.519012C0.328898 0.683504 0.199459 0.87871 0.111601 1.0934C0.0237427 1.30809 -0.0208209 1.53802 -0.0195028 1.76999V39.05H3.51053L3.53055 3.53ZM29.8205 27.98C29.5063 28.1189 29.2391 28.3458 29.0511 28.6333C28.863 28.9207 28.762 29.2565 28.7605 29.6V35.52H23.1905V29.6C23.1889 29.2565 23.0881 28.9207 22.9001 28.6333C22.712 28.3458 22.4447 28.1189 22.1305 27.98C20.653 27.3369 19.3593 26.335 18.367 25.0654C17.3746 23.7957 16.715 22.2984 16.4478 20.7093C16.1806 19.1201 16.3145 17.4894 16.8371 15.9651C17.3597 14.4407 18.2545 13.0709 19.4405 11.98V17.98C19.4393 18.2414 19.4962 18.4999 19.6068 18.7368C19.7175 18.9737 19.8792 19.1831 20.0805 19.35L24.8605 23.26C25.1734 23.5211 25.568 23.6642 25.9755 23.6642C26.383 23.6642 26.7776 23.5211 27.0905 23.26L31.8705 19.35C32.0718 19.1831 32.2335 18.9737 32.3441 18.7368C32.4548 18.4999 32.5117 18.2414 32.5105 17.98V11.98C33.6965 13.0709 34.5914 14.4407 35.114 15.9651C35.6366 17.4894 35.7704 19.1201 35.5032 20.7093C35.236 22.2984 34.5764 23.7957 33.584 25.0654C32.5917 26.335 31.298 27.3369 29.8205 27.98Z" fill="white"/>
</g>
<defs>
<clipPath id="clip0_2156_4619">
<rect width="51.96" height="47.89" fill="white"/>
</clipPath>
</defs>
</svg>
