<svg width="68" height="55" viewBox="0 0 68 55" fill="none" xmlns="http://www.w3.org/2000/svg">
<g clip-path="url(#clip0_2156_4599)">
<path d="M59.5205 46.6086V9.32859C59.5205 8.85916 59.3341 8.40895 59.0021 8.07701C58.6702 7.74508 58.22 7.55859 57.7505 7.55859H7.56055V11.0886H56.0005V46.6086H59.5205Z" fill="white"/>
<path d="M65.3191 2.29308e-10H15.1191V3.53H63.5491V39.05H67.0791V1.77C67.0805 1.53803 67.0359 1.30809 66.948 1.09341C66.8602 0.878717 66.7308 0.683514 66.5672 0.519023C66.4036 0.354531 66.2092 0.223995 65.995 0.134922C65.7808 0.0458492 65.5511 -3.74416e-06 65.3191 2.29308e-10" fill="white"/>
<path d="M31.5508 45.4406H35.0708V39.8906C33.8477 39.7671 32.6561 39.4286 31.5508 38.8906V45.4406Z" fill="white"/>
<path d="M40.7507 45.4389V38.8789C39.6418 39.4168 38.4469 39.7553 37.2207 39.8789V45.4289L40.7507 45.4389Z" fill="white"/>
<path d="M43.1895 29.3203C43.1895 27.9358 42.7789 26.5825 42.0097 25.4313C41.2406 24.2802 40.1473 23.383 38.8682 22.8532C37.5892 22.3233 36.1817 22.1847 34.8238 22.4548C33.466 22.7249 32.2187 23.3916 31.2397 24.3706C30.2607 25.3495 29.5941 26.5968 29.324 27.9547C29.0539 29.3126 29.1925 30.72 29.7223 31.9991C30.2521 33.2782 31.1493 34.3714 32.3005 35.1406C33.4516 35.9098 34.805 36.3203 36.1895 36.3203C38.0419 36.3072 39.8148 35.5655 41.1247 34.2556C42.4347 32.9457 43.1764 31.1728 43.1895 29.3203ZM36.1895 32.8303C35.4924 32.8323 34.8105 32.6273 34.2301 32.2413C33.6497 31.8552 33.197 31.3056 32.9293 30.662C32.6617 30.0184 32.5911 29.3098 32.7266 28.6261C32.8621 27.9423 33.1976 27.3142 33.6905 26.8213C34.1833 26.3284 34.8115 25.993 35.4952 25.8575C36.1789 25.722 36.8875 25.7925 37.5311 26.0602C38.1747 26.3278 38.7244 26.7806 39.1104 27.361C39.4964 27.9413 39.7014 28.6233 39.6995 29.3203C39.6995 30.2512 39.3297 31.144 38.6714 31.8023C38.0131 32.4605 37.1204 32.8303 36.1895 32.8303Z" fill="white"/>
<path d="M23.8997 39.2617H7.42969V42.7917H23.8997V39.2617Z" fill="white"/>
<path d="M23.8997 32.8281H7.42969V36.3581H23.8997V32.8281Z" fill="white"/>
<path d="M23.8997 26.4102H7.42969V29.9402H23.8997V26.4102Z" fill="white"/>
<path d="M48.43 50.6411H7.08003V54.1711H50.19C50.4253 54.1778 50.6596 54.1372 50.8789 54.0518C51.0983 53.9663 51.2982 53.8377 51.467 53.6736C51.6357 53.5095 51.7699 53.3132 51.8614 53.0964C51.953 52.8795 52.0001 52.6465 52 52.4111V16.8911C52 16.4217 51.8135 15.9715 51.4816 15.6395C51.1497 15.3076 50.6995 15.1211 50.23 15.1211H1.76003C1.52806 15.1211 1.29838 15.1669 1.08419 15.256C0.87 15.3451 0.675534 15.4756 0.511972 15.6401C0.348409 15.8046 0.218977 15.9998 0.131119 16.2145C0.0432614 16.4292 -0.0012896 16.6591 2.84118e-05 16.8911V54.1711H3.53003V18.6511H48.43V50.6411Z" fill="white"/>
</g>
<defs>
<clipPath id="clip0_2156_4599">
<rect width="67.08" height="54.17" fill="white"/>
</clipPath>
</defs>
</svg>
