<svg width="63" height="60" viewBox="0 0 63 60" fill="none" xmlns="http://www.w3.org/2000/svg">
<g clip-path="url(#clip0_287_10884)">
<path d="M44.7382 58.4771C44.7382 58.6778 44.778 58.8765 44.8554 59.0619C44.9327 59.2472 45.0461 59.4155 45.1889 59.557C45.3318 59.6985 45.5013 59.8105 45.6877 59.8866C45.8741 59.9626 46.0738 60.0011 46.2752 60H55.176C55.3774 60.0011 55.5771 59.9626 55.7635 59.8866C55.9499 59.8105 56.1195 59.6985 56.2623 59.557C56.4051 59.4155 56.5185 59.2472 56.5958 59.0619C56.6732 58.8765 56.713 58.6778 56.713 58.4771V32.5699H53.6477V56.9455H47.8036V21.7364H44.7382V58.4771Z" fill="white" stroke="white" stroke-width="0.5"/>
<path d="M36.8014 36.732H6.14801V39.8039H38.3297C38.5311 39.805 38.7308 39.7665 38.9172 39.6904C39.1036 39.6144 39.2731 39.5024 39.416 39.3609C39.5588 39.2194 39.6722 39.0511 39.7495 38.8657C39.8269 38.6804 39.8667 38.4817 39.8667 38.2809V21.745H36.8014V36.732Z" fill="white" stroke="white" stroke-width="0.5"/>
<path d="M43.8265 6.87049C43.8248 8.22958 44.2271 9.55871 44.9828 10.6902C45.7384 11.8216 46.8134 12.7047 48.0722 13.2279C49.331 13.7511 50.7171 13.8911 52.0556 13.6301C53.3941 13.3692 54.6251 12.719 55.5931 11.7616C56.5612 10.8042 57.2229 9.5825 57.4949 8.25071C57.7668 6.91892 57.6368 5.53669 57.1212 4.27846C56.6056 3.02023 55.7275 1.94238 54.5978 1.18093C53.4681 0.419477 52.1373 0.00854876 50.7734 2.74184e-09C48.94 -5.13817e-05 47.1808 0.722141 45.8795 2.00914C44.5782 3.29613 43.8402 5.04357 43.8265 6.87049ZM54.5595 6.87049C54.5612 7.62767 54.3373 8.36831 53.9163 8.9986C53.4952 9.62888 52.8958 10.1204 52.1941 10.411C51.4924 10.7015 50.72 10.778 49.9747 10.6307C49.2293 10.4834 48.5446 10.119 48.0073 9.58356C47.47 9.04815 47.1043 8.36588 46.9565 7.62317C46.8086 6.88045 46.8854 6.11073 47.177 5.41152C47.4685 4.71231 47.9618 4.11507 48.5944 3.69547C49.2269 3.27588 49.9701 3.0528 50.73 3.05451C51.7449 3.0568 52.7177 3.45957 53.4353 4.17471C54.153 4.88985 54.5572 5.85914 54.5595 6.87049Z" fill="white"/>
<path d="M43.8265 6.87049C43.8248 8.22958 44.2271 9.55871 44.9828 10.6902C45.7384 11.8216 46.8134 12.7047 48.0722 13.2279C49.331 13.7511 50.7171 13.8911 52.0556 13.6301C53.3941 13.3692 54.6251 12.719 55.5931 11.7616C56.5612 10.8042 57.2229 9.5825 57.4949 8.25071C57.7668 6.91892 57.6368 5.53669 57.1212 4.27846C56.6056 3.02023 55.7275 1.94238 54.5978 1.18093C53.4681 0.419477 52.1373 0.00854876 50.7734 2.74184e-09C48.94 -5.13817e-05 47.1808 0.722141 45.8795 2.00914C44.5782 3.29613 43.8402 5.04357 43.8265 6.87049M54.5595 6.87049C54.5612 7.62767 54.3373 8.36831 53.9163 8.9986C53.4952 9.62888 52.8958 10.1204 52.1941 10.411C51.4924 10.7015 50.72 10.778 49.9747 10.6307C49.2293 10.4834 48.5446 10.119 48.0073 9.58356C47.47 9.04815 47.1043 8.36588 46.9565 7.62317C46.8086 6.88045 46.8854 6.11073 47.177 5.41152C47.4685 4.71231 47.9618 4.11507 48.5944 3.69547C49.2269 3.27588 49.9701 3.0528 50.73 3.05451C51.7449 3.0568 52.7177 3.45957 53.4353 4.17471C54.153 4.88985 54.5572 5.85914 54.5595 6.87049Z" stroke="white" stroke-width="0.5"/>
<path d="M50.73 15.636H39.8667V7.09547C39.8667 6.68927 39.7048 6.29971 39.4165 6.01248C39.1283 5.72525 38.7373 5.56389 38.3297 5.56389H1.53701C1.12937 5.56389 0.738425 5.72525 0.450179 6.01248C0.161934 6.29971 0 6.68927 0 7.09547L0 39.8039H3.06533V8.65301H36.8014V15.6706H20.5716V18.6905H50.73C53.1675 18.6974 55.503 19.6665 57.2249 21.3856C58.9469 23.1047 59.915 25.4338 59.9173 27.8627V38.9386H62.9826V27.8627C62.978 24.6244 61.6862 21.5197 59.3899 19.2283C57.0936 16.9368 53.9798 15.6451 50.73 15.636Z" fill="white"/>
<path d="M50.73 15.636H39.8667V7.09547C39.8667 6.68927 39.7048 6.29971 39.4165 6.01248C39.1283 5.72525 38.7373 5.56389 38.3297 5.56389H1.53701C1.12937 5.56389 0.738425 5.72525 0.450179 6.01248C0.161934 6.29971 0 6.68927 0 7.09547L0 39.8039H3.06533V8.65302H36.8014V15.6706H20.5716V18.6905H50.73C53.1675 18.6974 55.503 19.6665 57.2249 21.3856C58.9469 23.1047 59.915 25.4338 59.9173 27.8627V38.9386H62.9826V27.8627C62.978 24.6244 61.6862 21.5197 59.3899 19.2283C57.0936 16.9368 53.9798 15.6451 50.73 15.636" stroke="white" stroke-width="0.5"/>
</g>
<defs>
<clipPath id="clip0_287_10884">
<rect width="63" height="60" fill="white"/>
</clipPath>
</defs>
</svg>
