<svg width="56" height="50" viewBox="0 0 56 50" fill="none" xmlns="http://www.w3.org/2000/svg">
<g clip-path="url(#clip0_4921_41065)">
<path d="M53.2153 8.69653H1.95178C1.70534 8.69652 1.46134 8.74537 1.23392 8.84027C1.00651 8.93517 0.800187 9.07422 0.626915 9.24937C0.453642 9.42453 0.31686 9.6323 0.224492 9.86066C0.132124 10.089 0.0860039 10.3334 0.0888044 10.5797V50H3.82533V12.4312H51.3523V46.2865H7.58303V50.0211H53.2153C53.4661 50.0283 53.7158 49.9847 53.9494 49.893C54.183 49.8013 54.3956 49.6633 54.5746 49.4875C54.7535 49.3116 54.895 49.1014 54.9907 48.8695C55.0863 48.6376 55.1341 48.3887 55.1311 48.1379V10.5797C55.1312 10.3343 55.0826 10.0913 54.9883 9.86471C54.894 9.6381 54.7559 9.43236 54.5818 9.25932C54.4076 9.08627 54.201 8.94934 53.9738 8.85638C53.7465 8.76343 53.5031 8.7163 53.2576 8.71769" fill="white"/>
<path d="M24.0428 31.2103C24.5369 31.2103 25.0108 31.0141 25.3601 30.6649C25.7095 30.3157 25.9058 29.8421 25.9058 29.3483V19.9534C25.9058 19.4586 25.7099 18.9839 25.3608 18.633C25.0117 18.2821 24.5379 18.0836 24.0428 18.0808H9.44601C8.95095 18.0836 8.47712 18.2821 8.12804 18.633C7.77897 18.9839 7.58303 19.4586 7.58304 19.9534V29.3483C7.58304 29.8421 7.77932 30.3157 8.12869 30.6649C8.47806 31.0141 8.95192 31.2103 9.44601 31.2103H24.0428ZM11.3407 21.8155H22.1693V27.5074H11.3196L11.3407 21.8155Z" fill="white"/>
<path d="M47.1606 27.4862H29.727V31.2209H47.1606V27.4862Z" fill="white"/>
<path d="M47.1606 18.0808H29.727V21.8155H47.1606V18.0808Z" fill="white"/>
<path d="M47.1606 36.8705H7.58304V40.6051H47.1606V36.8705Z" fill="white"/>
<path d="M55.0888 0H0.0888062V3.73466H55.0888V0Z" fill="white"/>
</g>
<defs>
<clipPath id="clip0_4921_41065">
<rect width="55" height="50" fill="white" transform="translate(0.0888062)"/>
</clipPath>
</defs>
</svg>
