<svg width="61" height="54" viewBox="0 0 61 54" fill="none" xmlns="http://www.w3.org/2000/svg">
<g clip-path="url(#clip0_287_10889)">
<path d="M58.922 8.75864H2.06618C1.79385 8.75863 1.52421 8.81175 1.27275 8.91495C1.0213 9.01815 0.793002 9.16938 0.600983 9.35995C0.408964 9.55052 0.257014 9.77667 0.15387 10.0254C0.0507269 10.2741 -0.001575 10.5405 -2.76803e-05 10.8093V54H4.14412V12.8483H56.8558V49.9219H8.31175V54.0116H58.922C59.1998 54.0178 59.4761 53.9689 59.7344 53.8679C59.9927 53.7669 60.2279 53.6158 60.426 53.4236C60.6241 53.2313 60.7812 53.0018 60.8878 52.7485C60.9945 52.4953 61.0486 52.2236 61.0469 51.9494V10.8093C61.0469 10.2654 60.828 9.74382 60.4383 9.35925C60.0486 8.97468 59.5201 8.75864 58.969 8.75864" fill="white"/>
<path d="M61 0H0V4.08968H61V0Z" fill="white"/>
<path d="M17.7505 29.3345V33.4242H22.153C22.357 34.2408 22.6856 35.022 23.1274 35.7413L20.0163 38.8114L22.9513 41.7078L26.0623 38.6376C26.7901 39.0783 27.5819 39.4065 28.4103 39.6108V44.0249H32.5544V39.6224C33.3825 39.4171 34.1741 39.0889 34.9024 38.6492L38.0487 41.7078L40.9836 38.823L37.8608 35.7528C38.3064 35.0341 38.6389 34.2529 38.847 33.4357H43.2494V29.3345H38.847C38.6423 28.5162 38.3096 27.7345 37.8608 27.0174L40.9836 23.9472L38.0487 21.0508L34.9376 24.121C34.2069 23.686 33.416 23.3582 32.5897 23.1478V18.8033H28.422V23.171C27.5954 23.3804 26.8043 23.7083 26.0741 24.1442L22.963 21.074L20.0281 23.9704L23.1391 27.0406C22.6945 27.7584 22.3658 28.5401 22.1647 29.3576L17.7505 29.3345ZM30.5 27.0174C31.3846 27.0174 32.2494 27.2763 32.985 27.7613C33.7205 28.2463 34.2938 28.9357 34.6324 29.7423C34.9709 30.5488 35.0595 31.4364 34.8869 32.2926C34.7143 33.1488 34.2883 33.9354 33.6628 34.5527C33.0372 35.17 32.2402 35.5904 31.3726 35.7607C30.5049 35.931 29.6056 35.8436 28.7883 35.5095C27.971 35.1754 27.2724 34.6097 26.7809 33.8838C26.2894 33.1579 26.0271 32.3045 26.0271 31.4315C26.0225 30.8464 26.1354 30.2662 26.3594 29.7245C26.5834 29.1827 26.9141 28.6902 27.3322 28.2754C27.7504 27.8606 28.2477 27.5318 28.7955 27.3079C29.3432 27.084 29.9306 26.9695 30.5235 26.971" fill="white"/>
</g>
<defs>
<clipPath id="clip0_287_10889">
<rect width="61" height="54" fill="white"/>
</clipPath>
</defs>
</svg>
