<svg width="1190" height="101" viewBox="0 0 1190 101" fill="none" xmlns="http://www.w3.org/2000/svg">
<path d="M69.8799 63.95C69.8799 43.95 86.3499 27.76 106.95 27.76C127.55 27.76 144.17 43.94 144.17 63.95C144.17 83.81 127.69 100.29 106.95 100.29C86.2099 100.29 69.8799 83.81 69.8799 63.95ZM126.37 63.95C126.37 53.95 117.69 45.12 106.95 45.12C96.3599 45.12 87.6799 53.95 87.6799 63.95C87.7789 69.0048 89.8494 73.8207 93.4494 77.3704C97.0495 80.92 101.894 82.9223 106.95 82.95C117.69 82.93 126.37 74.1 126.37 63.95Z" fill="#0056D2"/>
<path d="M437.32 64.54C437.32 42.62 455.12 27.76 471.32 27.76C482.32 27.76 488.68 31.15 492.95 37.62L494.64 29.09H511.19V98.96H494.6L492.47 91.76C487.61 97.05 481.58 100.29 471.28 100.29C455.41 100.29 437.32 86.31 437.32 64.54ZM493.81 64.39C493.677 59.3349 491.571 54.5326 487.942 51.0112C484.312 47.4897 479.449 45.529 474.392 45.5486C469.335 45.5682 464.487 47.5666 460.885 51.1161C457.283 54.6655 455.214 59.484 455.12 64.54C455.12 74.25 463.8 82.93 474.39 82.93C485.13 82.93 493.81 74.25 493.81 64.39Z" fill="#0056D2"/>
<path d="M419.45 37.1801V29.0801H401.35V98.9601H419.45V61.3001C419.45 49.9701 425.04 44.0901 434.75 44.0901C435.368 44.0956 435.985 44.1323 436.6 44.2001L439.95 27.3201C430.52 27.3801 423.68 30.6101 419.45 37.1801Z" fill="#0056D2"/>
<path d="M241.6 37.18V29.09H223.51L223.66 98.97H241.76L241.6 61.31C241.6 49.98 247.16 44.08 256.86 44.06C257.481 44.0621 258.102 44.0955 258.72 44.16L262.03 27.28C252.6 27.36 245.79 30.6 241.6 37.18Z" fill="#0056D2"/>
<path d="M149.95 71.9001V29.0901H168.04V69.7401C168.04 78.7401 173.04 84.0101 181.72 84.0101C191.43 84.0101 197.02 78.1201 197.02 66.8001V29.0901H215.12V98.9601H197.02V90.8701C192.76 97.4901 185.84 100.73 176.28 100.73C160.1 100.74 149.95 88.9601 149.95 71.9001Z" fill="#0056D2"/>
<path d="M0 63.9501C0 43.8001 16.48 27.6201 37.07 27.6201C43.262 27.5762 49.3679 29.072 54.8384 31.9731C60.309 34.8742 64.9726 39.0896 68.41 44.2401L52.96 53.2401C51.131 50.4711 48.6141 48.2246 45.6558 46.7207C42.6976 45.2168 39.3995 44.5071 36.0845 44.6609C32.7695 44.8148 29.5514 45.827 26.7452 47.5985C23.939 49.37 21.641 51.8399 20.0763 54.7664C18.5117 57.693 17.7339 60.9757 17.8193 64.2932C17.9046 67.6106 18.8502 70.849 20.5633 73.6912C22.2764 76.5334 24.6984 78.8819 27.5919 80.5067C30.4855 82.1315 33.7515 82.9769 37.07 82.9601C40.3347 82.9832 43.5507 82.1679 46.41 80.592C49.2693 79.0162 51.6761 76.7326 53.4 73.9601L68.7 83.0901C65.3082 88.3945 60.6291 92.7543 55.0986 95.7635C49.5681 98.7726 43.3661 100.333 37.07 100.3C16.48 100.29 0 83.8101 0 63.9501Z" fill="#0056D2"/>
<path d="M325.14 64.0301C325.14 44.4701 339.14 27.7201 361.4 27.7601C382 27.7601 396.53 44.3001 396.49 63.7601C396.495 65.6824 396.345 67.6021 396.04 69.5001L342.79 69.4001C344.79 77.7901 351.73 83.8401 362.18 83.8501C368.51 83.8501 375.28 81.5201 379.41 76.2401L391.75 86.1201C385.4 95.1201 374.21 100.35 362.3 100.33C341.26 100.25 325.11 84.4801 325.14 64.0301ZM378.27 56.7401C377.27 49.6701 369.9 44.2201 361.27 44.2001C357.345 44.1201 353.497 45.2925 350.284 47.5474C347.07 49.8022 344.659 53.0222 343.4 56.7401H378.27Z" fill="#0056D2"/>
<path d="M261.19 83.7401L277.29 75.3201C279.95 81.0801 285.29 84.4801 292.79 84.4801C299.73 84.4801 302.39 82.2601 302.39 79.1601C302.39 67.9401 264.29 74.7301 264.29 49.0401C264.29 34.8701 276.7 27.3301 292.05 27.3301C303.72 27.3301 314.05 32.5001 319.67 42.1001L303.72 50.5201C301.36 45.7901 296.93 43.1301 291.32 43.1301C285.71 43.1301 283.19 45.0501 283.19 48.3001C283.19 59.2301 321.29 52.3001 321.29 78.4301C321.29 92.0101 310.22 100.28 292.35 100.28C277.14 100.27 266.51 95.2501 261.19 83.7401Z" fill="#0056D2"/>
<path d="M555.03 33.97L563.95 33.41H584.45V38.54H555.03V33.97ZM563.81 19.2C563.81 6.53 569.5 0 579.61 0C582.827 0.0821446 585.993 0.81345 588.92 2.15L587.33 6.93999C584.965 5.76424 582.362 5.14512 579.72 5.13C572.83 5.13 569.72 10.36 569.72 19.6V97.27H563.84L563.81 19.2Z" fill="#0056D2"/>
<path d="M591.21 65.4601C591.21 44.1001 604.54 31.8101 619.88 31.8101C635.22 31.8101 648.6 44.1001 648.6 65.4601C648.6 86.5801 635.27 98.8701 619.92 98.8701C604.57 98.8701 591.21 86.5801 591.21 65.4601ZM642.39 65.4601C642.39 48.6501 632.78 37 619.88 37C606.98 37 597.38 48.6501 597.38 65.4601C597.38 82.2701 606.98 93.6801 619.88 93.6801C632.78 93.6801 642.39 82.2701 642.39 65.4601Z" fill="#0056D2"/>
<path d="M667.74 33.41H672.74L673.38 45.32H673.6C677.92 37.48 684.17 31.81 691.77 31.81C693.957 31.7265 696.132 32.1833 698.1 33.14L696.77 38.46C694.94 37.7131 692.976 37.3522 691 37.4C685.25 37.4 678.44 41.76 673.57 53.83V97.27H667.7L667.74 33.41Z" fill="#0056D2"/>
<path d="M742.35 90.8101H742.05L741.39 97.2701H736.49V1.59009H742.37V29.3601L742.08 41.8101C748.53 36.3601 756.3 31.8101 764.08 31.8101C781.21 31.8101 789.66 44.6301 789.66 64.3801C789.66 86.0701 776.57 98.8701 761.52 98.8701C755.41 98.8701 748.36 95.7401 742.35 90.8101ZM783.47 64.4201C783.47 48.7301 777.88 37.0201 763.15 37.0201C756.82 37.0201 749.85 40.7501 742.37 47.5601V85.4401C749.37 91.4401 756.37 93.6501 761.18 93.6501C774.16 93.6501 783.47 81.7401 783.47 64.4201Z" fill="#0056D2"/>
<path d="M807.601 74.3701V33.3701H813.481V73.5601C813.481 87.1001 817.761 93.5601 828.031 93.5601C835.631 93.5601 841.141 89.5601 848.611 80.5601V33.4101H854.491V97.2701H849.491L848.851 86.5801H848.601C842.321 93.9201 835.721 98.8701 826.921 98.8701C813.691 98.8701 807.601 90.8601 807.601 74.3701Z" fill="#0056D2"/>
<path d="M870.98 90.0401L874.39 85.75C879.79 90.28 885.6 93.8401 894.68 93.8401C904.74 93.8401 909.95 87.9601 909.95 81.2301C909.95 73.2301 901.68 69.71 894.31 67.05C884.68 63.64 873.96 59.7101 873.96 48.8101C873.96 39.6001 881.25 31.8101 894.55 31.8101C901.197 31.9299 907.614 34.259 912.79 38.4301L909.63 42.66C905.32 39.44 900.791 36.8401 894.391 36.8401C884.391 36.8401 879.92 42.5701 879.92 48.4601C879.92 55.7501 887.45 58.52 895.05 61.39C904.95 65.15 915.911 68.39 915.911 80.86C915.911 90.49 908.221 98.86 894.391 98.86C885.793 98.7652 877.503 95.6421 870.98 90.0401V90.0401Z" fill="#0056D2"/>
<path d="M930.511 12.7401C930.57 11.3625 931.16 10.0611 932.155 9.10742C933.151 8.15372 934.477 7.62134 935.856 7.62134C937.235 7.62134 938.56 8.15372 939.556 9.10742C940.552 10.0611 941.141 11.3625 941.201 12.7401C941.141 14.1177 940.552 15.4191 939.556 16.3728C938.56 17.3265 937.235 17.8588 935.856 17.8588C934.477 17.8588 933.151 17.3265 932.155 16.3728C931.16 15.4191 930.57 14.1177 930.511 12.7401ZM932.801 33.3801H938.681V97.2401H932.801V33.3801Z" fill="#0056D2"/>
<path d="M963.261 33.41H968.261L968.901 43.3H969.191C975.711 36.81 982.361 31.8101 991.191 31.8101C1004.38 31.8101 1010.5 39.8101 1010.5 56.3101V97.3101H1004.6V57.08C1004.6 43.54 1000.32 37.08 990.051 37.08C982.451 37.08 976.941 41.08 969.171 49.08V97.25H963.301L963.261 33.41Z" fill="#0056D2"/>
<path d="M1028.6 65.4601C1028.6 44.6301 1042.14 31.8101 1056.45 31.8101C1071.58 31.8101 1080.89 42.58 1080.89 61.36C1080.92 62.9633 1080.81 64.566 1080.56 66.1501H1034.64C1034.85 82.2701 1044.29 93.7901 1058.64 93.7901C1064.82 93.793 1070.84 91.8048 1075.8 88.1201L1078.22 92.5901C1073.22 95.7301 1067.45 98.8701 1058.08 98.8701C1041.86 98.8701 1028.6 86.3401 1028.6 65.4601ZM1075.36 61.3101C1075.36 45.0001 1067.96 36.89 1056.5 36.89C1045.7 36.89 1035.94 46.0401 1034.61 61.3101H1075.36Z" fill="#0056D2"/>
<path d="M1090.3 90.0401L1093.7 85.75C1099.1 90.28 1104.91 93.8401 1113.99 93.8401C1124.05 93.8401 1129.26 87.9601 1129.26 81.2301C1129.26 73.2301 1120.99 69.71 1113.62 67.05C1103.99 63.64 1093.27 59.7101 1093.27 48.8101C1093.27 39.6001 1100.56 31.8101 1113.86 31.8101C1120.51 31.933 1126.93 34.2617 1132.11 38.4301L1128.94 42.66C1124.63 39.44 1120.1 36.8401 1113.7 36.8401C1103.7 36.8401 1099.23 42.5701 1099.23 48.4601C1099.23 55.7501 1106.76 58.52 1114.37 61.39C1124.26 65.15 1135.22 68.39 1135.22 80.86C1135.22 90.49 1127.53 98.86 1113.7 98.86C1105.1 98.7671 1096.82 95.6437 1090.3 90.0401V90.0401Z" fill="#0056D2"/>
<path d="M1144.16 90.0401L1147.6 85.7401C1153 90.2701 1158.82 93.83 1167.9 93.83C1177.9 93.83 1183.17 87.95 1183.17 81.22C1183.17 73.22 1174.9 69.7001 1167.53 67.0401C1157.9 63.6301 1147.18 59.7 1147.18 48.8C1147.18 39.59 1154.47 31.8 1167.77 31.8C1174.42 31.9199 1180.83 34.249 1186.01 38.42L1182.85 42.6501C1178.54 39.4301 1174 36.83 1167.61 36.83C1157.61 36.83 1153.14 42.5601 1153.14 48.4501C1153.14 55.7401 1160.66 58.5101 1168.27 61.3801C1178.17 65.1401 1189.13 68.3801 1189.13 80.8501C1189.13 90.4801 1181.44 98.8501 1167.61 98.8501C1159 98.7674 1150.7 95.6473 1144.16 90.0401V90.0401Z" fill="#0056D2"/>
</svg>
