<svg width="193" height="19" viewBox="0 0 193 19" fill="none" xmlns="http://www.w3.org/2000/svg">
<path d="M9.79395 8.96203C9.79395 6.15883 12.1024 3.88965 14.9897 3.88965C17.877 3.88965 20.2064 6.15743 20.2064 8.96203C20.2064 11.7456 17.8966 14.0554 14.9897 14.0554C12.0828 14.0554 9.79395 11.7456 9.79395 8.96203ZM17.7116 8.96203C17.7116 7.56043 16.495 6.32282 14.9897 6.32282C13.5054 6.32282 12.2888 7.56043 12.2888 8.96203C12.3027 9.6705 12.5929 10.3455 13.0974 10.843C13.602 11.3405 14.281 11.6212 14.9897 11.6251C16.495 11.6223 17.7116 10.3847 17.7116 8.96203Z" fill="#0056D2"/>
<path d="M61.2949 9.04472C61.2949 5.97242 63.7898 3.88965 66.0604 3.88965C67.6021 3.88965 68.4935 4.36479 69.092 5.27162L69.3289 4.07606H71.6485V13.869H69.3233L69.0247 12.8599C68.3436 13.6013 67.4984 14.0554 66.0547 14.0554C63.8304 14.0554 61.2949 12.096 61.2949 9.04472ZM69.2125 9.0237C69.1939 8.31516 68.8987 7.64209 68.3901 7.14852C67.8813 6.65496 67.1997 6.38013 66.4909 6.38288C65.7821 6.38563 65.1026 6.66574 64.5978 7.16322C64.0929 7.66072 63.8029 8.33608 63.7898 9.04472C63.7898 10.4057 65.0064 11.6223 66.4906 11.6223C67.996 11.6223 69.2125 10.4057 69.2125 9.0237Z" fill="#0056D2"/>
<path d="M58.7898 5.20961V4.07432H56.2529V13.8687H58.7898V8.59027C58.7898 7.00226 59.5733 6.17812 60.9343 6.17812C61.0209 6.17889 61.1074 6.18403 61.1936 6.19353L61.6631 3.82764C60.3414 3.83605 59.3827 4.28876 58.7898 5.20961Z" fill="#0056D2"/>
<path d="M33.8626 5.20985V4.07595H31.3271L31.3482 13.8703H33.8851L33.8626 8.5919C33.8626 7.00389 34.6419 6.17695 36.0015 6.17415C36.0885 6.17443 36.1756 6.17911 36.2622 6.18816L36.7261 3.82227C35.4044 3.83348 34.4499 4.2876 33.8626 5.20985Z" fill="#0056D2"/>
<path d="M21.0166 10.0759V4.07568H23.5521V9.77318C23.5521 11.0346 24.2529 11.7733 25.4695 11.7733C26.8304 11.7733 27.6139 10.9477 27.6139 9.36111V4.07568H30.1508V13.8686H27.6139V12.7348C27.0168 13.6626 26.0469 14.1167 24.707 14.1167C22.4392 14.1181 21.0166 12.467 21.0166 10.0759Z" fill="#0056D2"/>
<path d="M0 8.96176C0 6.13755 2.30983 3.86976 5.19572 3.86976C6.06359 3.86361 6.91939 4.07326 7.68614 4.47988C8.4529 4.88649 9.10655 5.47732 9.58833 6.19922L7.42286 7.46065C7.16651 7.07255 6.81374 6.75768 6.39911 6.5469C5.98449 6.33611 5.52222 6.23662 5.0576 6.25819C4.59297 6.27977 4.14192 6.42164 3.7486 6.66993C3.35528 6.91822 3.0332 7.2644 2.81389 7.67458C2.5946 8.08476 2.48558 8.54487 2.49755 9.00984C2.5095 9.47482 2.64204 9.92871 2.88215 10.3271C3.12225 10.7254 3.46172 11.0546 3.86727 11.2823C4.27284 11.5101 4.7306 11.6286 5.19572 11.6262C5.6533 11.6294 6.10406 11.5152 6.50481 11.2943C6.90557 11.0734 7.24291 10.7534 7.48453 10.3648L9.62898 11.6444C9.15358 12.3879 8.49776 12.999 7.72261 13.4207C6.94745 13.8425 6.07818 14.0612 5.19572 14.0566C2.30983 14.0552 0 11.7453 0 8.96176Z" fill="#0056D2"/>
<path d="M45.5713 8.97325C45.5713 6.23173 47.5335 3.88405 50.6535 3.88966C53.5408 3.88966 55.5773 6.2079 55.5717 8.93541C55.5724 9.20484 55.5514 9.4739 55.5086 9.73993L48.0451 9.72591C48.3254 10.9019 49.2981 11.7498 50.7628 11.7512C51.65 11.7512 52.5989 11.4246 53.1778 10.6846L54.9073 12.0694C54.0173 13.3308 52.4489 14.0639 50.7796 14.0611C47.8307 14.0498 45.5671 11.8395 45.5713 8.97325ZM53.018 7.95149C52.8778 6.96056 51.8448 6.19669 50.6353 6.19388C50.0851 6.18266 49.5458 6.347 49.0955 6.66303C48.645 6.97907 48.3071 7.43037 48.1306 7.95149H53.018Z" fill="#0056D2"/>
<path d="M36.6084 11.7355L38.865 10.5554C39.2378 11.3627 39.9862 11.8392 41.0374 11.8392C42.0102 11.8392 42.383 11.5281 42.383 11.0936C42.383 9.52099 37.0429 10.4727 37.0429 6.87197C37.0429 4.88591 38.7823 3.8291 40.9337 3.8291C42.5694 3.8291 44.0172 4.55373 44.8049 5.89926L42.5694 7.07941C42.2386 6.41645 41.6177 6.04363 40.8314 6.04363C40.0451 6.04363 39.6919 6.31273 39.6919 6.76825C39.6919 8.3002 45.032 7.32889 45.032 10.9913C45.032 12.8946 43.4804 14.0538 40.9758 14.0538C38.8439 14.0524 37.354 13.3488 36.6084 11.7355Z" fill="#0056D2"/>
<path d="M77.793 4.76123L79.0432 4.68274H81.9165V5.40316H77.793V4.76123ZM79.0236 2.69247C79.0236 0.915243 79.8211 0 81.2381 0C81.689 0.012031 82.1329 0.115005 82.543 0.302745L82.3201 0.97411C81.9886 0.809318 81.6238 0.722542 81.2535 0.720423C80.2878 0.720423 79.8519 1.45206 79.8519 2.74853V13.6347H79.0278L79.0236 2.69247Z" fill="#0056D2"/>
<path d="M82.8643 9.17634C82.8643 6.18252 84.7326 4.45996 86.8826 4.45996C89.0327 4.45996 90.908 6.18252 90.908 9.17634C90.908 12.1351 89.0397 13.8577 86.8882 13.8577C84.7368 13.8577 82.8643 12.1351 82.8643 9.17634ZM90.0376 9.17634C90.0376 6.81885 88.6907 5.18599 86.8826 5.18599C85.0746 5.18599 83.729 6.81885 83.729 9.17634C83.729 11.5338 85.0746 13.1316 86.8826 13.1316C88.6907 13.1316 90.0376 11.5324 90.0376 9.17634Z" fill="#0056D2"/>
<path d="M93.5906 4.68271H94.2914L94.3811 6.35341H94.4119C95.0174 5.25316 95.8934 4.45986 96.9586 4.45986C97.2651 4.44815 97.57 4.51218 97.8458 4.64627L97.6594 5.39192C97.4031 5.28676 97.1278 5.2357 96.8507 5.24195C96.0448 5.24195 95.0903 5.85304 94.4077 7.54617V13.6347H93.585L93.5906 4.68271Z" fill="#0056D2"/>
<path d="M102.47 15.4651C102.47 14.6844 102.986 13.8883 103.808 13.3066V13.2309C103.56 13.0842 103.356 12.8737 103.217 12.6212C103.078 12.3688 103.009 12.0837 103.018 11.7957C103.018 10.9954 103.597 10.4249 103.999 10.1446V10.0703C103.647 9.7651 103.364 9.38858 103.169 8.9657C102.974 8.54283 102.87 8.08326 102.866 7.61751C102.856 7.20076 102.931 6.78629 103.085 6.39914C103.24 6.01199 103.471 5.6602 103.766 5.36503C104.06 5.06987 104.411 4.83747 104.798 4.68186C105.185 4.52626 105.599 4.45068 106.016 4.45971C106.423 4.45794 106.827 4.53357 107.206 4.68256H110.236V5.38336H108.148C108.464 5.66423 108.716 6.00993 108.886 6.39691C109.057 6.78389 109.142 7.20308 109.136 7.62592C109.136 9.4564 107.759 10.7865 106.007 10.7865C105.49 10.7865 104.981 10.6554 104.527 10.4053C104.14 10.7234 103.801 11.1061 103.801 11.7004C103.801 12.3451 104.174 12.8637 105.508 12.8637H107.426C109.437 12.8637 110.378 13.5042 110.378 14.917C110.378 16.4588 108.725 17.9417 106.146 17.9417C103.891 17.9445 102.47 16.9746 102.47 15.4651ZM109.539 15.0095C109.539 14.0214 108.823 13.6458 107.468 13.6458H105.549C105.177 13.6351 104.806 13.5882 104.443 13.5056C103.615 14.0663 103.269 14.7544 103.269 15.3852C103.269 16.5177 104.349 17.2829 106.236 17.2829C108.253 17.2773 109.539 16.1364 109.539 15.0095ZM108.327 7.61751C108.327 6.10518 107.28 5.14088 106.012 5.14088C104.743 5.14088 103.698 6.08836 103.698 7.61751C103.698 9.11581 104.778 10.1292 106.012 10.1292C107.245 10.1292 108.327 9.11581 108.327 7.61751Z" fill="#0056D2"/>
<path d="M111.348 9.17634C111.348 6.18252 113.216 4.45996 115.366 4.45996C117.516 4.45996 119.386 6.18252 119.386 9.17634C119.386 12.1351 117.517 13.8577 115.366 13.8577C113.215 13.8577 111.348 12.1351 111.348 9.17634ZM118.521 9.17634C118.521 6.81885 117.175 5.18599 115.366 5.18599C113.557 5.18599 112.212 6.81885 112.212 9.17634C112.212 11.5338 113.558 13.1373 115.366 13.1373C117.174 13.1373 118.52 11.5324 118.52 9.17634H118.521Z" fill="#0056D2"/>
<path d="M120.56 4.68262H121.451L123.464 10.289C123.754 11.1538 124.079 12.0564 124.369 12.8609H124.443C124.735 12.0564 125.059 11.1538 125.35 10.289L127.363 4.68262H128.204L124.891 13.6346H123.909L120.56 4.68262Z" fill="#0056D2"/>
<path d="M129.373 9.17634C129.373 6.25681 131.271 4.45996 133.277 4.45996C135.397 4.45996 136.702 5.96948 136.702 8.60168C136.706 8.82639 136.691 9.05102 136.656 9.27305H130.22C130.249 11.5324 131.572 13.1457 133.583 13.1457C134.45 13.1465 135.293 12.8683 135.989 12.3524L136.328 12.9789C135.627 13.4176 134.818 13.8577 133.505 13.8577C131.226 13.8577 129.373 12.1029 129.373 9.17634ZM135.927 8.59467C135.927 6.30867 134.891 5.17197 133.284 5.17197C131.77 5.17197 130.402 6.45443 130.215 8.59467H135.927Z" fill="#0056D2"/>
<path d="M139.13 4.68275H139.831L139.92 6.35345H139.962C140.568 5.2532 141.444 4.45989 142.508 4.45989C142.815 4.44802 143.119 4.51205 143.395 4.6463L143.209 5.39195C142.952 5.28655 142.677 5.23549 142.4 5.24198C141.595 5.24198 140.641 5.85308 139.958 7.54621V13.6348H139.134L139.13 4.68275Z" fill="#0056D2"/>
<path d="M145.039 4.68281H145.74L145.83 6.0704H145.87C146.784 5.16076 147.716 4.45996 148.954 4.45996C150.802 4.45996 151.66 5.58124 151.66 7.89388V13.6404H150.836V8.0018C150.836 6.10404 150.236 5.1986 148.797 5.1986C147.73 5.1986 146.958 5.75924 145.87 6.88052V13.632H145.046L145.039 4.68281Z" fill="#0056D2"/>
<path d="M154.961 4.68281H155.662L155.751 6.0718H155.792C156.605 5.16076 157.623 4.45996 158.622 4.45996C160.057 4.45996 160.775 5.18319 161.093 6.28204C162.109 5.16076 163.099 4.45996 164.132 4.45996C165.914 4.45996 166.809 5.58124 166.809 7.89388V13.6404H165.985V8.0018C165.985 6.10404 165.351 5.1986 163.979 5.1986C163.138 5.1986 162.287 5.75924 161.299 6.88052V13.632H160.475V8.0018C160.475 6.10404 159.841 5.1986 158.469 5.1986C157.66 5.1986 156.776 5.75924 155.788 6.88052V13.632H154.961V4.68281Z" fill="#0056D2"/>
<path d="M169.34 9.17634C169.34 6.25681 171.238 4.45996 173.243 4.45996C175.364 4.45996 176.669 5.96948 176.669 8.60168C176.673 8.82639 176.658 9.05102 176.623 9.27305H170.186C170.216 11.5324 171.539 13.1457 173.55 13.1457C174.416 13.1465 175.26 12.8683 175.955 12.3524L176.295 12.9789C175.594 13.4176 174.785 13.8577 173.472 13.8577C171.193 13.8577 169.34 12.1029 169.34 9.17634ZM175.894 8.59467C175.894 6.30867 174.857 5.17197 173.25 5.17197C171.737 5.17197 170.369 6.45443 170.182 8.59467H175.894Z" fill="#0056D2"/>
<path d="M179.096 4.68281H179.797L179.886 6.0704H179.927C180.841 5.16076 181.773 4.45996 183.01 4.45996C184.86 4.45996 185.717 5.58124 185.717 7.89388V13.6404H184.894V8.0018C184.894 6.10404 184.293 5.1986 182.855 5.1986C181.788 5.1986 181.016 5.75924 179.928 6.88052V13.632H179.104L179.096 4.68281Z" fill="#0056D2"/>
<path d="M189.221 11.1625V5.40335H187.819V4.76142L189.236 4.68293L189.34 2.09277H190.041V4.68293H192.635V5.40335H190.041V11.2242C190.041 12.3665 190.321 13.1388 191.562 13.1388C191.95 13.1135 192.33 13.0185 192.683 12.8584L192.899 13.5256C192.382 13.7078 191.808 13.8606 191.438 13.8606C189.72 13.8578 189.221 12.7659 189.221 11.1625Z" fill="#0056D2"/>
</svg>
